<?xml version="1.0" encoding="utf-8"?>
<!-- Generator: Adobe Illustrator 24.0.2, SVG Export Plug-In . SVG Version: 6.00 Build 0)  -->
<svg version="1.1" xmlns="http://www.w3.org/2000/svg" xmlns:xlink="http://www.w3.org/1999/xlink" x="0px" y="0px"
	 viewBox="0 0 167.33 242.67" style="enable-background:new 0 0 167.33 242.67;" xml:space="preserve">
<style type="text/css">
	.st0{fill:#DFB28B;}
	.st1{fill:#ECC19C;}
	.st2{fill:#CF9E76;}
	.st3{fill:#F0D0B4;}
	.st4{fill:#F5E0CD;}
	.st5{fill:#DCA665;}
	.st6{fill:#B77F43;}
	.st7{fill:#F4C080;}
	.st8{fill:#F7EAB8;}
	.st9{fill:none;}
	.st10{font-family:'Raleway';}
	.st11{font-size:23px;}
</style>
<g id="Layer_1">
	<g>
		<path class="st0" d="M99.85,141.97c0,0,14.15-5.24,15.8-8.59c1.65-3.36,7.3-18.8,15.11-19.53c1.79-0.17,2.24,1.15,2.24,1.15
			s7.57-6.33,13.44-4.54c5.87,1.79-4.48,17.32-4.48,17.32s-24.15,41.87-77.39,33.25C11.34,152.43,99.85,141.97,99.85,141.97z"/>
		<path class="st1" d="M14.43,179.72c0,0,5.75-9.38,23.09-7.67c17.34,1.72,36.08,3.51,45.3,0.53c9.34-3.03,35.13-7.42,43.46-16.53
			c8.18-8.95,13.22-12.89,14.83-17.49c1.13-3.24,7.19-21.37,6.14-23.06c-1.05-1.69-8.87-1.75-13.45,7.69
			c-2.99,6.17-4.12,12.98-4.12,12.98s-14.86,9.68-19.66,12.08c-4.8,2.4-40.98,12.68-42.52,9.85c-1.53-2.84,30.71-8.41,32.33-12.21
			c2-4.69-2.63-11.24-16.12-8.37c-13.49,2.87-16.48,3.7-19.94,3.3C60.34,140.41,21.02,131.12,14.43,179.72z"/>
		<path class="st2" d="M140.78,110.71c0,0-0.24,0.06-0.69,0.17c-0.44,0.11-1.12,0.31-1.91,0.66c-1.6,0.68-3.75,2.05-5.77,4.18
			c-2.04,2.12-3.96,4.92-5.6,8.08c-0.82,1.58-1.56,3.26-2.25,4.97c-0.34,0.86-0.69,1.73-0.99,2.6l-0.46,1.3l-0.23,0.62l-0.05,0.13
			l-0.02,0.06l-0.01,0.03c-0.09,0.16,0.11-0.2,0.09-0.16l-0.01,0.02c-0.1,0.15-0.09,0.08-0.06,0.05c-0.49,0.41-1.39,1.02-2.14,1.5
			c-0.8,0.51-1.59,1.02-2.38,1.52c-1.6,1-3.22,1.92-4.76,2.84c-3.12,1.81-6.07,3.44-8.64,4.79c-2.57,1.34-4.76,2.37-6.33,3.04
			c-1.57,0.66-2.52,0.97-2.52,0.97s0.25-0.03,0.71-0.08c0.46-0.06,1.15-0.15,2.01-0.34c1.72-0.35,4.13-1.05,6.9-2.11
			c2.79-1.05,5.94-2.47,9.21-4.17c1.65-0.83,3.29-1.78,4.96-2.77c0.83-0.5,1.67-0.99,2.49-1.54c0.85-0.58,1.57-1.03,2.53-1.88
			c0.2-0.19,0.38-0.43,0.41-0.48l0.01-0.02l0.11-0.2l0.02-0.05l0.04-0.1l0.08-0.19l0.24-0.69l0.44-1.31
			c0.29-0.86,0.58-1.72,0.86-2.57c0.59-1.69,1.24-3.33,1.93-4.89c1.35-3.13,2.93-5.92,4.6-8.11c1.65-2.21,3.45-3.75,4.86-4.64
			c0.7-0.45,1.28-0.77,1.71-0.95C140.56,110.81,140.78,110.71,140.78,110.71z"/>
		<path class="st2" d="M139.68,116.24c0,0-0.28,0.21-0.8,0.6c-0.27,0.19-0.58,0.44-0.92,0.76c-0.36,0.31-0.76,0.68-1.16,1.13
			c-1.69,1.75-3.47,4.74-4.91,8.52c-0.73,1.89-1.38,3.96-2.16,6.11c-0.2,0.53-0.41,1.07-0.62,1.62c-0.23,0.53-0.42,1.14-0.72,1.47
			c-0.68,0.82-1.73,1.57-2.79,2.26c-4.35,2.74-9.51,5.09-14.7,7.26c-5.21,2.14-10.47,4.23-15.5,5.93
			c-5.03,1.69-9.75,3.24-13.87,4.29c-4.12,1.04-7.61,1.77-10.1,1.87c-1.24,0.05-2.22-0.01-2.87-0.16c-0.65-0.15-0.96-0.33-0.96-0.33
			s0.29,0.21,0.93,0.43c0.64,0.22,1.63,0.39,2.9,0.42c2.54,0.05,6.16-0.31,10.37-1.23c4.21-0.9,9.09-2.13,14.17-3.83
			c5.08-1.68,10.48-3.57,15.7-5.84c2.61-1.13,5.19-2.32,7.7-3.57c2.49-1.27,4.94-2.55,7.13-4.11c1.09-0.79,2.15-1.58,2.99-2.7
			c0.46-0.65,0.57-1.22,0.8-1.77c0.19-0.56,0.38-1.12,0.57-1.67c0.68-2.19,1.31-4.26,1.9-6.18c1.18-3.8,2.73-6.79,4.28-8.61
			c0.36-0.47,0.72-0.86,1.05-1.19c0.31-0.34,0.6-0.62,0.85-0.83C139.42,116.46,139.68,116.24,139.68,116.24z"/>
		<path class="st3" d="M88.8,148.96c0,0,7.93-0.93,9.65-3.46c1.29-1.89-1.17-5.38-2.42-5.75c-2.08-0.61-8.99,2.65-8.99,2.65
			L88.8,148.96z"/>
		<path class="st4" d="M88.8,148.96c0,0,3.91-3.61-1.75-6.55L88.8,148.96z"/>
		<path class="st5" d="M83.67,120.08c0,0,42.2-24.4,47.37-28.42c0,0,3.16-53.11,1.44-56.56c-1.72-3.45-41.06,8.9-41.06,8.9
			L75.9,60.08L75.05,86.2L83.67,120.08z"/>
		<path class="st6" d="M34.86,35.1c0,0,0.29,53.97,1.44,57.71s45.65,27.85,47.37,27.27c1.72-0.57,0-56.27,0-56.27l-15.5-26.13
			L34.86,35.1z"/>
		<path class="st7" d="M34.86,35.1c-0.75,1.87,47.08,29,48.81,28.71c1.72-0.29,47.95-27.85,48.81-28.71
			c0.86-0.86-45.07-26.99-48.81-27.85C79.93,6.39,36.01,32.23,34.86,35.1z"/>
		<path class="st8" d="M53.53,22.57c0,0,47.92,31.19,48.52,30.84c0.6-0.35-0.56,20.74,0,21.88c0.56,1.15,10.32-5.45,11.18-6.32
			s0.86-18.24,0-22.18S68.07,17.37,65.39,15.75C62.71,14.14,51.86,21.49,53.53,22.57z"/>
	</g>
</g>
<g id="Camada_2">
	<rect x="9.92" y="209.36" class="st9" width="147.5" height="21.29"/>
	<text transform="matrix(1 0 0 1 9.9153 226.1542)" class="st10 st11">Help Delivery</text>
</g>
</svg>
