<?xml version="1.0" encoding="utf-8"?>
<!-- Generator: Adobe Illustrator 24.0.2, SVG Export Plug-In . SVG Version: 6.00 Build 0)  -->
<svg version="1.1" xmlns="http://www.w3.org/2000/svg" xmlns:xlink="http://www.w3.org/1999/xlink" x="0px" y="0px"
	 viewBox="0 0 189.33 209.78" style="enable-background:new 0 0 189.33 209.78;" xml:space="preserve">
<style type="text/css">
	.st0{opacity:0.3;fill:url(#SVGID_1_);}
	.st1{fill:#DCA665;}
	.st2{fill:#B77F43;}
	.st3{fill:#F4C080;}
	.st4{fill:#F7EAB8;}
	.st5{fill:none;stroke:#000000;stroke-width:0.5;stroke-miterlimit:10;}
	.st6{fill:none;}
	.st7{font-family:'Raleway';}
	.st8{font-size:23px;}
</style>
<g id="Layer_1">
	
		<radialGradient id="SVGID_1_" cx="109.1468" cy="40.4864" r="41.4478" gradientTransform="matrix(1.3461 0 0 0.1813 -34.4286 156.8631)" gradientUnits="userSpaceOnUse">
		<stop  offset="0.0591" style="stop-color:#646464"/>
		<stop  offset="0.2138" style="stop-color:#868686"/>
		<stop  offset="0.475" style="stop-color:#BABABA"/>
		<stop  offset="0.7027" style="stop-color:#DFDFDF"/>
		<stop  offset="0.8853" style="stop-color:#F7F7F7"/>
		<stop  offset="1" style="stop-color:#FFFFFF"/>
	</radialGradient>
	<path class="st0" d="M168.29,164.2c0,4.15-24.98,7.51-55.79,7.51c-30.81,0-55.79-3.36-55.79-7.51c0-4.15,24.98-7.52,55.79-7.52
		C143.31,156.69,168.29,160.05,168.29,164.2z"/>
</g>
<g id="Camada_2">
	<g>
		<path class="st1" d="M109.25,149.87c0,0,42.2-24.4,47.37-28.42c0,0,3.16-53.11,1.44-56.56c-1.72-3.45-41.06,8.9-41.06,8.9
			l-15.52,16.08L100.64,116L109.25,149.87z"/>
		<path class="st2" d="M60.44,64.89c0,0,0.29,53.97,1.44,57.71s45.65,27.85,47.37,27.27s0-56.27,0-56.27l-15.5-26.13L60.44,64.89z"
			/>
		<path class="st3" d="M60.44,64.89c-0.75,1.87,47.08,29,48.81,28.71c1.72-0.29,47.95-27.85,48.81-28.71s-45.07-26.99-48.81-27.85
			C105.52,36.18,61.59,62.02,60.44,64.89z"/>
		<path class="st4" d="M79.11,52.37c0,0,47.92,31.19,48.52,30.84c0.6-0.35-0.56,20.74,0,21.88c0.56,1.15,10.32-5.45,11.18-6.32
			c0.86-0.86,0.86-18.24,0-22.18c-0.86-3.94-45.17-29.43-47.85-31.04C88.29,43.94,77.44,51.28,79.11,52.37z"/>
		<g>
			<line x1="54.98" y1="61.82" x2="13.34" y2="37.02"/>
			<line class="st5" x1="54.98" y1="61.82" x2="13.34" y2="37.02"/>
			<line x1="54.98" y1="61.82" x2="13.34" y2="37.02"/>
		</g>
		<g>
			<line x1="54.98" y1="117.62" x2="13.34" y2="92.82"/>
			<line class="st5" x1="54.98" y1="117.62" x2="13.34" y2="92.82"/>
			<line x1="54.98" y1="117.62" x2="13.34" y2="92.82"/>
		</g>
		<g>
			<line x1="102.08" y1="34.55" x2="60.44" y2="9.75"/>
			<line class="st5" x1="102.08" y1="34.55" x2="60.44" y2="9.75"/>
			<line x1="102.08" y1="34.55" x2="60.44" y2="9.75"/>
		</g>
	</g>
	<rect x="36.27" y="178.52" class="st6" width="147.5" height="21.29"/>
	<text transform="matrix(1 0 0 1 36.2649 195.3116)" class="st7 st8">Help Delivery</text>
</g>
</svg>
