<svg xmlns="http://www.w3.org/2000/svg" xmlns:xlink="http://www.w3.org/1999/xlink" viewBox="0 0 142.66 145.31"><defs><style>.cls-1{fill:#f0f7f7;}.cls-16,.cls-2{fill:#d7d8e7;}.cls-3{isolation:isolate;}.cls-4{fill:#ebf1ff;}.cls-5{fill:#ff417c;}.cls-6{fill:#feb4a2;}.cls-7{fill:#272e53;}.cls-8{clip-path:url(#clip-path);}.cls-9{fill:#fff;opacity:0.65;}.cls-10{fill:#ffd687;}.cls-11{fill:#ffe9a4;}.cls-12{fill:#f23e3d;}.cls-13{fill:#333456;}.cls-14{fill:#26a568;}.cls-15{clip-path:url(#clip-path-2);}.cls-16{opacity:0.19;mix-blend-mode:screen;}.cls-17{fill:#a8a6f6;}</style><clipPath id="clip-path"><rect class="cls-1" x="30.6" y="60.22" width="36.94" height="59.39" rx="2.81" transform="translate(-33.17 28.85) rotate(-24.79)"/></clipPath><clipPath id="clip-path-2"><path class="cls-2" d="M19.35,25A11.92,11.92,0,0,0,7.44,37H31.27A11.92,11.92,0,0,0,19.35,25Z"/></clipPath></defs><title>Ativo 1</title><g class="cls-3"><g id="Camada_2" data-name="Camada 2"><g id="OBJECTS"><circle class="cls-4" cx="75.42" cy="67.04" r="67.04" transform="translate(-25.31 72.96) rotate(-45)"/><path class="cls-5" d="M98.93,7.89A32.36,32.36,0,0,0,76,63.08c-2.44,5-6.65,14-6.65,14l14.46-8.19a32.37,32.37,0,1,0,15.15-61Z"/><path class="cls-5" d="M1.05,26.58A19.29,19.29,0,0,0,27.71,50.2c2.33,2.33,6.6,6.45,6.6,6.45l-1.82-9.73A19.29,19.29,0,1,0,1.05,26.58Z"/><path class="cls-6" d="M49.53,139.83s-18.28,11.25-33-9.14c0,0,8.44-38.68,14.77-49.93s16.17-32.35,21.1-31.65-8.44,28.83-8.44,28.83,2.11,0,7-9.14S60.78,49.11,63.6,52.63,62.19,70.21,52.35,81.46c0,0,11.25-12,14.06-14.77s4.92-1.41,2.81,6.33S56.56,89.9,56.56,89.9,70.8,75.64,73.14,77.2c3.4,2.27-4.62,11.29-8.84,15.51s-7,19.69-11.25,28.13S49.53,139.83,49.53,139.83Z"/><rect class="cls-7" x="29.08" y="57.78" width="39.98" height="64.27" rx="3.04" transform="matrix(0.91, -0.42, 0.42, 0.91, -33.17, 28.85)"/><rect class="cls-1" x="30.6" y="60.22" width="36.94" height="59.39" rx="2.81" transform="translate(-33.17 28.85) rotate(-24.79)"/><g class="cls-8"><path class="cls-9" d="M24,100.72c.2-.43,35.82-50.5,35.82-50.5L64.49,43,77.4,64.16,27.84,110.62Z"/><path class="cls-9" d="M31.45,113.72c.52-1.55,44.19-39,44.19-39l9.49,9.48L32,115.78Z"/></g><path class="cls-6" d="M105.91,145.24c-.7-.05-5.63-9.84-13.36-16.17S70,115.7,62.31,113.59s.7-10.54,14.77-4.21c0,0-14.07-12.66-19.7-19S46.84,70.7,79.19,100.23c0,0-7.74-7-4.22-9.84s7.73,1.4,7.73,1.4-2.81-4.92,0-7,7,2.11,7,2.11S86.92,81.25,92.55,82s13.36,11.25,20.39,21.8,19.69,21.8,19.69,21.8S125.6,146.65,105.91,145.24Z"/><path class="cls-6" d="M26.11,96.88s2.35-8.59,7.82-12.5S43.3,75,45.65,78.13s-2.35,12.31-6.51,15.5c-5,3.85.64,8.78,2.27,15.3,1.7,6.8-6.23,15.3-6.23,15.3"/><circle class="cls-10" cx="99.87" cy="40.13" r="24.24"/><circle class="cls-11" cx="99.87" cy="40.13" r="21.28" transform="translate(-0.82 78.15) rotate(-42.58)"/><circle class="cls-12" cx="88.7" cy="41.18" r="2.53"/><circle class="cls-12" cx="100.08" cy="28.54" r="2.53"/><circle class="cls-12" cx="106.41" cy="51.3" r="2.53"/><circle class="cls-12" cx="112.73" cy="34.86" r="2.53"/><circle class="cls-12" cx="93.76" cy="51.3" r="2.53"/><path class="cls-13" d="M90.39,29a.85.85,0,1,1-.84-.84A.85.85,0,0,1,90.39,29Z"/><circle class="cls-13" cx="103.88" cy="42.87" r="0.84"/><path class="cls-13" d="M108.94,29.8a.85.85,0,1,1-.85-.84A.85.85,0,0,1,108.94,29.8Z"/><path class="cls-13" d="M88.7,46.24a.84.84,0,1,1-.84-.84A.83.83,0,0,1,88.7,46.24Z"/><path class="cls-13" d="M116.94,45.4a.84.84,0,1,1-.84-.85A.84.84,0,0,1,116.94,45.4Z"/><path class="cls-13" d="M99.24,58a.84.84,0,1,1-.84-.84A.84.84,0,0,1,99.24,58Z"/><path class="cls-13" d="M98,38.23a.85.85,0,1,1-.85-.84A.84.84,0,0,1,98,38.23Z"/><path class="cls-13" d="M102.61,22.22a.84.84,0,1,1-.84-.85A.84.84,0,0,1,102.61,22.22Z"/><path class="cls-14" d="M100.45,40.66s-2.11-3.17.53-5.8c0,0,2.89,3.16-.8,6.32"/><path class="cls-14" d="M99.13,49.74A2.68,2.68,0,0,1,96,48.54,2.43,2.43,0,0,1,99.38,50"/><path class="cls-14" d="M114,44.27a3.62,3.62,0,0,1-2.82-3.53,3.29,3.29,0,0,1,3,4"/><path class="cls-14" d="M88.86,31a3.63,3.63,0,0,1-3.73,2.57,3.29,3.29,0,0,1,4.17-2.67"/><path class="cls-14" d="M98.13,22.55a3.62,3.62,0,0,1-3.73,2.56s.45-3.31,4.18-2.67"/><path class="cls-14" d="M115,49.94a3.63,3.63,0,0,1-3.73,2.56s.45-3.3,4.18-2.66"/><path class="cls-2" d="M19.35,25A11.92,11.92,0,0,0,7.44,37H31.27A11.92,11.92,0,0,0,19.35,25Z"/><g class="cls-15"><path class="cls-16" d="M14.33,25c-.32.36-3.35,4.79-1,7.66S34,36.44,31.08,30.22,18.63,20.17,14.33,25Z"/></g><path class="cls-2" d="M31.52,38.46H7.18A.51.51,0,0,1,6.67,38h0a.51.51,0,0,1,.51-.52H31.52A.51.51,0,0,1,32,38h0A.51.51,0,0,1,31.52,38.46Z"/><path class="cls-2" d="M19.74,24.4a.52.52,0,1,1-.52-.51A.51.51,0,0,1,19.74,24.4Z"/><path class="cls-17" d="M128.64,98.79a13.81,13.81,0,0,1-6.45-1.6,14.08,14.08,0,0,1-5.29-4.93l-5.22-.1a.76.76,0,0,1-.74-.56.77.77,0,0,1,.31-.87c1.66-1.13,3-2,3.91-2.62A13.86,13.86,0,0,1,117,77.34a14.09,14.09,0,0,1,17.84-5h0A13.83,13.83,0,0,1,142,80.77a13.91,13.91,0,0,1-13.4,18Zm.18-27.31a13.56,13.56,0,0,0-11.39,6.14,13.28,13.28,0,0,0-1.72,10.54l0,.18-.15.1c-.9.59-2.31,1.53-4.06,2.72a.24.24,0,0,0-.1.29.26.26,0,0,0,.25.2l5.51.1.07.12A13.42,13.42,0,1,0,134.6,72.8h0A13.2,13.2,0,0,0,128.82,71.48Z"/><path class="cls-17" d="M123.34,85.06a1.81,1.81,0,1,1-1.81-1.8A1.81,1.81,0,0,1,123.34,85.06Z"/><path class="cls-17" d="M129.79,85.06a1.81,1.81,0,1,1-1.8-1.8A1.81,1.81,0,0,1,129.79,85.06Z"/><path class="cls-17" d="M136.25,85.06a1.81,1.81,0,1,1-1.81-1.8A1.81,1.81,0,0,1,136.25,85.06Z"/><path class="cls-17" d="M10.75,80.4a8,8,0,0,1,3.77.94,8.17,8.17,0,0,1,3.1,2.88l3.05.06a.45.45,0,0,1,.44.33.47.47,0,0,1-.19.51l-2.28,1.53A8.09,8.09,0,0,1,17.56,93,8.23,8.23,0,0,1,7.13,95.87h0a8.1,8.1,0,0,1-4.22-4.93A8.14,8.14,0,0,1,10.75,80.4Zm-.11,16a8,8,0,0,0,6.67-3.59,7.8,7.8,0,0,0,1-6.17l0-.1.09-.06,2.37-1.59a.18.18,0,0,0,.07-.18.16.16,0,0,0-.15-.11l-3.22-.06-.05-.07a7.85,7.85,0,0,0-14.2,6.4A7.8,7.8,0,0,0,7.27,95.6h0A7.56,7.56,0,0,0,10.64,96.38Z"/><path class="cls-17" d="M13.85,88.43a1.06,1.06,0,1,1,1.06,1.06A1.07,1.07,0,0,1,13.85,88.43Z"/><path class="cls-17" d="M10.08,88.43a1.06,1.06,0,1,1,1.05,1.06A1.06,1.06,0,0,1,10.08,88.43Z"/><path class="cls-17" d="M6.3,88.43a1.06,1.06,0,1,1,1.06,1.06A1.07,1.07,0,0,1,6.3,88.43Z"/><circle class="cls-17" cx="72.49" cy="139.78" r="3.36"/><path class="cls-17" d="M51.58,18.73A2.58,2.58,0,1,1,49,16.15,2.58,2.58,0,0,1,51.58,18.73Z"/><path class="cls-5" d="M138.83,53.57a1.29,1.29,0,1,1-1.29-1.29A1.29,1.29,0,0,1,138.83,53.57Z"/><path class="cls-5" d="M8.22,122.49a2.07,2.07,0,1,1-2.07-2.06A2.07,2.07,0,0,1,8.22,122.49Z"/></g></g></g></svg>