<svg xmlns="http://www.w3.org/2000/svg" xmlns:xlink="http://www.w3.org/1999/xlink" viewBox="0 0 134.07 156.71"><defs><style>.cls-1,.cls-8{fill:#a8a6f6;}.cls-2{fill:#ff417c;}.cls-3{isolation:isolate;}.cls-4{fill:#ebf1ff;}.cls-5{fill:#fff;}.cls-6{clip-path:url(#clip-path);}.cls-7{fill:#c2c2ff;}.cls-8{opacity:0.42;}.cls-11,.cls-8{mix-blend-mode:multiply;}.cls-9{clip-path:url(#clip-path-2);}.cls-10{fill:#e22471;}.cls-11,.cls-12{fill:#6666c6;}.cls-11{opacity:0.83;}</style><clipPath id="clip-path"><polygon class="cls-1" points="21.1 137.65 119.57 137.65 119.57 80.83 82.69 43.94 21.1 81.88 21.1 137.65"/></clipPath><clipPath id="clip-path-2"><polygon class="cls-2" points="82.89 42.01 56.04 42.01 15.1 80.83 17.92 84.71 43.33 84.71 82.89 42.01"/></clipPath></defs><title>step2Ativo 3</title><g class="cls-3"><g id="Camada_2" data-name="Camada 2"><g id="OBJECTS"><circle class="cls-4" cx="67.04" cy="71.95" r="67.04" transform="translate(-14.5 126.92) rotate(-81.01)"/><path class="cls-5" d="M28.65,66.93a4.63,4.63,0,0,0-4.91-1.05A4.63,4.63,0,1,0,14.62,67a4.68,4.68,0,0,0-.5-.6,4.62,4.62,0,0,0-7.88,2.89A2.88,2.88,0,0,0,1,71c0,.12,0,.25,0,.37H29.86A4.64,4.64,0,0,0,28.65,66.93Z"/><path class="cls-5" d="M126.66,68.18a3.46,3.46,0,0,0-3.66-.79,3.45,3.45,0,1,0-6.8.86,3.16,3.16,0,0,0-.37-.45,3.45,3.45,0,0,0-4.88,0A3.41,3.41,0,0,0,110,70,2.15,2.15,0,0,0,106,71.17a2.46,2.46,0,0,0,0,.28h21.5A3.43,3.43,0,0,0,126.66,68.18Z"/><path class="cls-2" d="M30.26,0A18.58,18.58,0,0,0,11.68,18.58c0,8.29,12.12,25,16.78,31.09a2.26,2.26,0,0,0,3.59,0c4.66-6.11,16.79-22.8,16.79-31.09A18.58,18.58,0,0,0,30.26,0Zm0,28.12a9.29,9.29,0,1,1,9.29-9.29A9.28,9.28,0,0,1,30.26,28.12Z"/><polygon class="cls-1" points="21.1 137.65 119.57 137.65 119.57 80.83 82.69 43.94 21.1 81.88 21.1 137.65"/><g class="cls-6"><rect class="cls-7" x="42.27" y="31.06" width="86.47" height="125.65"/><rect class="cls-8" x="16.77" y="125.71" width="107.41" height="16.29"/></g><polygon class="cls-2" points="82.89 42.01 56.04 42.01 15.1 80.83 17.92 84.71 43.33 84.71 82.89 42.01"/><g class="cls-9"><rect class="cls-10" x="11.22" y="80.83" width="37.76" height="9.88"/></g><path class="cls-10" d="M43.21,84.65l-2.93-3.06L80.91,42.71a2.54,2.54,0,0,1,3.57,0l38.17,37.82-3,3-37-36.67Z"/><rect class="cls-11" x="26.95" y="94.66" width="10.18" height="21.89"/><rect class="cls-11" x="56.47" y="94.15" width="20.87" height="21.89"/><path class="cls-5" d="M77.55,116.45H56.28V94.15H77.55Zm-20.24-1H76.52V95.18H57.31Z"/><rect class="cls-5" x="54.56" y="116.11" width="24.01" height="1.72"/><rect class="cls-5" x="66.05" y="94.33" width="1.37" height="21.27"/><rect class="cls-11" x="74.25" y="67.32" width="12.53" height="13.14"/><path class="cls-5" d="M86.9,80.71H74.13V67.32H86.9Zm-12.15-.62H86.29V67.94H74.75Z"/><rect class="cls-5" x="73.1" y="80.51" width="14.42" height="1.03"/><rect class="cls-5" x="80" y="67.43" width="0.82" height="12.77"/><path class="cls-5" d="M38,116.62H26.63V94.33H38Zm-10.29-1h9.26V95.36H27.66Z"/><rect class="cls-5" x="24.91" y="116.28" width="13.72" height="1.37"/><rect class="cls-5" x="31.77" y="101.53" width="1.37" height="9.61" transform="translate(-73.87 138.79) rotate(-90)"/><path class="cls-5" d="M94.14,89.06v44.8H114.5V89.06Zm9.67,43.78H95.16V112h8.65Zm0-21.89H95.16V90.08h8.65Zm9.67,21.89h-8.65V112h8.65Zm0-21.89h-8.65V90.08h8.65Z"/><rect class="cls-12" x="95.16" y="90.08" width="8.65" height="20.87"/><rect class="cls-12" x="104.83" y="90.08" width="8.65" height="20.87"/><rect class="cls-12" x="95.16" y="111.97" width="8.65" height="20.87"/><rect class="cls-12" x="104.83" y="111.97" width="8.65" height="20.87"/><rect class="cls-5" x="92.74" y="133.42" width="23.29" height="1.72"/><rect class="cls-5" x="91.72" y="134.94" width="25.32" height="1.72"/><rect class="cls-5" x="90.7" y="136.47" width="27.36" height="1.72"/><path class="cls-5" d="M124.19,32.11a6.89,6.89,0,0,0-7.32-1.57,6.9,6.9,0,1,0-13.6,1.71,6.9,6.9,0,0,0-12.5,3.42,4.29,4.29,0,0,0-7.83,2.44,5.09,5.09,0,0,0,0,.56h43A6.88,6.88,0,0,0,124.19,32.11Z"/></g></g></g></svg>