<svg xmlns="http://www.w3.org/2000/svg" xmlns:xlink="http://www.w3.org/1999/xlink" viewBox="0 0 402.22 342.37"><defs><style>.cls-1{fill:#7ec6e8;}.cls-2{fill:#ece3b3;}.cls-3{isolation:isolate;}.cls-4,.cls-9{fill:#fff;}.cls-4{stroke:#ff417c;stroke-miterlimit:10;stroke-width:0.5px;}.cls-5{fill:#ff417c;}.cls-6{fill:#a8a6f6;}.cls-7{fill:#f2cf00;}.cls-8{fill:#512918;}.cls-10{clip-path:url(#clip-path);}.cls-11{fill:#977462;}.cls-12{fill:#cf6d4d;}.cls-13{fill:#1b1d25;}.cls-14,.cls-17{fill:#dfbf9b;}.cls-14{opacity:0.5;mix-blend-mode:multiply;}.cls-15{clip-path:url(#clip-path-2);}.cls-16{clip-path:url(#clip-path-3);}.cls-18{fill:#504039;}.cls-19{fill:#a8482f;}.cls-20{clip-path:url(#clip-path-4);}</style><clipPath id="clip-path"><circle id="SVGID" class="cls-1" cx="208.62" cy="258.15" r="20.22" transform="translate(-99.09 382.58) rotate(-73.07)"/></clipPath><clipPath id="clip-path-2"><circle id="SVGID-2" data-name="SVGID" class="cls-1" cx="208.65" cy="138.93" r="20.22" transform="translate(14.99 298.1) rotate(-73.07)"/></clipPath><clipPath id="clip-path-3"><circle id="SVGID-3" data-name="SVGID" class="cls-2" cx="187.24" cy="200.33" r="19.84"/></clipPath><clipPath id="clip-path-4"><circle id="SVGID-4" data-name="SVGID" class="cls-2" cx="187.4" cy="84.81" r="19.84"/></clipPath></defs><title>step3Ativo 1</title><g class="cls-3"><g id="Camada_2" data-name="Camada 2"><g id="OBJECTS"><rect class="cls-4" x="118.11" y="0.25" width="166" height="341.87" rx="27.1"/><path class="cls-5" d="M210.78,12.11a2.42,2.42,0,1,1-2.41-2.42A2.42,2.42,0,0,1,210.78,12.11Z"/><circle class="cls-5" cx="182.17" cy="22.79" r="2.82"/><rect class="cls-5" x="193.86" y="21.38" width="29.02" height="3.02" rx="1.51"/><path class="cls-5" d="M202.78,330.9a13,13,0,1,1,13-13A13,13,0,0,1,202.78,330.9Zm0-25.12a12.12,12.12,0,1,0,12.12,12.11A12.12,12.12,0,0,0,202.78,305.78Z"/><path class="cls-5" d="M274.51,298.94H127.81V39h146.7Zm-145.8-.89H273.62V39.93H128.71Z"/><rect class="cls-6" x="239.73" y="113.12" width="162.49" height="70.39" rx="11.61"/><polygon class="cls-6" points="229 113.12 257.49 113.12 245.03 129.15 229 113.12"/><circle class="cls-7" cx="325.45" cy="163.94" r="10.36" transform="translate(90.83 442.77) rotate(-76.66)"/><path class="cls-8" d="M322.54,161.52c0,1.07-.87-.66-1.93-.66s-1.93,1.73-1.93.66a1.93,1.93,0,0,1,3.86,0Z"/><path class="cls-8" d="M332.22,161.52c0,1.07-.86-.66-1.93-.66s-1.93,1.73-1.93.66a1.93,1.93,0,1,1,3.86,0Z"/><path class="cls-8" d="M325.45,168.13a8.71,8.71,0,0,1-6.17-2.55.28.28,0,0,1,.4-.4,8.17,8.17,0,0,0,11.54,0,.28.28,0,1,1,.4.4A8.71,8.71,0,0,1,325.45,168.13Z"/><rect class="cls-9" x="254.22" y="129.29" width="126" height="3.55"/><rect class="cls-9" x="254.22" y="142.79" width="126" height="3.55"/><rect class="cls-9" x="254.22" y="158.79" width="50" height="3.55"/><path class="cls-5" d="M173.22,60.78H11.61A11.64,11.64,0,0,0,0,72.39V99.57a11.64,11.64,0,0,0,11.61,11.6H150.89a11.63,11.63,0,0,0,11.6-11.6V72.39c0-.28,0-.56,0-.84Z"/><rect class="cls-9" x="16.22" y="75.29" width="126" height="3.55"/><rect class="cls-9" x="16.22" y="88.79" width="76" height="3.55"/><rect class="cls-6" x="239.73" y="232.12" width="162.49" height="56.39" rx="11.61"/><polygon class="cls-6" points="229 232.12 257.49 232.12 245.03 248.15 229 232.12"/><rect class="cls-9" x="254.22" y="250.29" width="126" height="3.55"/><rect class="cls-9" x="254.22" y="263.79" width="45.99" height="3.55"/><path class="cls-5" d="M173.22,176.78H11.61A11.64,11.64,0,0,0,0,188.39v27.18a11.64,11.64,0,0,0,11.61,11.6H150.89a11.63,11.63,0,0,0,11.6-11.6V188.39c0-.28,0-.56,0-.84Z"/><rect class="cls-9" x="16.22" y="193.29" width="126" height="3.55"/><rect class="cls-9" x="16.22" y="206.79" width="76" height="3.55"/><circle id="SVGID-5" data-name="SVGID" class="cls-1" cx="208.62" cy="258.15" r="20.22" transform="translate(-99.09 382.58) rotate(-73.07)"/><g class="cls-10"><path class="cls-11" d="M220.33,280.41H196.9a11.73,11.73,0,0,1,3.45-8.32l.31-.29a12.33,12.33,0,0,1,1-.8l.68-.47c.24-.15.47-.29.72-.42h0l.28-.16a6.19,6.19,0,0,0,.79-.55,7.42,7.42,0,0,0,2.37-3.3h0a7.38,7.38,0,0,0,.43-2.5l3.46,0a7.45,7.45,0,0,0,2.78,5.78l.23.17.31.23.24.15.28.16h0l0,0,.8.47.25.18a2.52,2.52,0,0,1,.33.24h0A11.69,11.69,0,0,1,220.33,280.41Z"/><path class="cls-12" d="M220.33,280.41H196.9a11.73,11.73,0,0,1,3.45-8.32l.31-.29a12.33,12.33,0,0,1,1-.8l.68-.47c.24-.15.47-.29.72-.42h0l.28-.16a6.19,6.19,0,0,0,.79-.55,6.33,6.33,0,0,0,9,0l.23.17.31.23.24.15.28.16h0c.27.15.54.31.8.48l.25.18a2.52,2.52,0,0,1,.33.24h0A11.69,11.69,0,0,1,220.33,280.41Z"/><path class="cls-11" d="M199.62,248v7.34c0,6.22,5.47,11.27,9,11.27s9-5.05,9-11.27V248Z"/><path class="cls-13" d="M199.62,254.44h0a.8.8,0,0,0,.8-.8v-5.1h-.8Z"/><path class="cls-13" d="M217.61,254.44h0v-5.9h-.8v5.1A.8.8,0,0,0,217.61,254.44Z"/><path class="cls-13" d="M217.61,248.32c0,1.05-.07,1.3-.8,1.25,0-.51-3.69-.93-8.19-.93s-8.17.42-8.2.93c-.73.05-.8-.2-.8-1.25,0-.1,0-.21,0-.33.11-2.59,1.57-7.43,9-7.43s8.87,4.84,9,7.43C217.61,248.11,217.61,248.22,217.61,248.32Z"/><path class="cls-9" d="M213.14,269.34a14.44,14.44,0,0,1-4.52,6.51,14.52,14.52,0,0,1-4.52-6.51h0a6.72,6.72,0,0,0,9,0Z"/><path class="cls-14" d="M208.62,240.56v39.85H196.9a11.64,11.64,0,0,1,3.46-8.31,8,8,0,0,1,.74-.68c.17-.15.34-.29.52-.42s.68-.47,1-.69l.36-.2h0a7.09,7.09,0,0,0,1.07-.71h0a7.42,7.42,0,0,0,2.37-3.3,12.39,12.39,0,0,1-6.85-10.76V248h0C199.74,245.4,201.2,240.56,208.62,240.56Z"/></g><circle id="SVGID-6" data-name="SVGID" class="cls-1" cx="208.65" cy="138.93" r="20.22" transform="translate(14.99 298.1) rotate(-73.07)"/><g class="cls-15"><path class="cls-11" d="M220.37,161.18H196.93a11.66,11.66,0,0,1,3.46-8.31c.09-.1.19-.19.3-.29.31-.28.63-.55,1-.8s.45-.32.69-.47.47-.29.71-.42h0l.28-.16a7.47,7.47,0,0,0,3.16-3.85h0a7.38,7.38,0,0,0,.43-2.5h3.47a7.26,7.26,0,0,0,.42,2.48,7.49,7.49,0,0,0,2.35,3.31l.23.17.31.23.25.15.27.16h0c.28.15.54.31.8.48l.25.17.34.25h0A11.67,11.67,0,0,1,220.37,161.18Z"/><path class="cls-12" d="M220.37,161.18H196.93a11.66,11.66,0,0,1,3.46-8.31c.09-.1.19-.19.3-.29.31-.28.63-.55,1-.8s.45-.32.69-.47.47-.29.71-.42h0l.28-.16a7.4,7.4,0,0,0,.79-.55,6.33,6.33,0,0,0,9,0l.23.17.31.23.25.15.27.16h0c.28.15.54.31.8.48l.25.17.34.25h0A11.67,11.67,0,0,1,220.37,161.18Z"/><path class="cls-11" d="M199.65,128.77v7.33c0,6.23,5.47,11.28,9,11.28s9-5,9-11.28v-7.33Z"/><path class="cls-13" d="M199.65,135.22h0a.8.8,0,0,0,.8-.8v-5.1h-.8Z"/><path class="cls-13" d="M217.64,135.22h0v-5.9h-.8v5.1A.8.8,0,0,0,217.64,135.22Z"/><path class="cls-13" d="M217.64,129.1c0,1.05-.07,1.3-.8,1.25,0-.51-3.68-.93-8.19-.93s-8.17.42-8.19.93c-.74.05-.81-.2-.81-1.25,0-.1,0-.21,0-.33.11-2.59,1.57-7.43,9-7.43s8.87,4.84,9,7.43Z"/><path class="cls-9" d="M213.17,150.11a14.39,14.39,0,0,1-4.52,6.52,14.55,14.55,0,0,1-4.52-6.52l0,0a6.72,6.72,0,0,0,4.48,1.71,6.65,6.65,0,0,0,4.48-1.71Z"/><path class="cls-14" d="M208.65,121.34v39.85H196.93a11.66,11.66,0,0,1,3.46-8.31,9.51,9.51,0,0,1,.74-.67c.17-.15.34-.29.52-.42a11.71,11.71,0,0,1,1-.69l.36-.2h0a6.46,6.46,0,0,0,1.07-.72h0a7.4,7.4,0,0,0,2.36-3.3,12.42,12.42,0,0,1-6.85-10.77v-7.33h0C199.77,126.18,201.23,121.34,208.65,121.34Z"/></g><path class="cls-9" d="M206,261.59a2.68,2.68,0,0,0,5.33,0Z"/><circle id="SVGID-7" data-name="SVGID" class="cls-2" cx="187.24" cy="200.33" r="19.84"/><g class="cls-16"><path class="cls-17" d="M196.07,191.62v6.88c0,.08,0,.15,0,.23s0,.14,0,.21a.76.76,0,0,0,0,.15.28.28,0,0,0,0,.09s0,.11,0,.16a2.91,2.91,0,0,1,0,.31.22.22,0,0,1,0,.08,1,1,0,0,1,0,.16h0c0,.08,0,.15,0,.23l-.06.31h0v.05h0a.75.75,0,0,1,0,.16.22.22,0,0,1,0,.08l0,.11s0,.05,0,.07,0,0,0,.06c-.05.17-.1.35-.16.52s-.05.16-.08.25v0l-.08.22,0,.07a1.8,1.8,0,0,1-.08.21l-.1.25-.1.22s0,0,0,0-.07.15-.11.23l-.12.24c-.07.16-.16.31-.24.47l-.12.21a13.11,13.11,0,0,1-1.11,1.61l-.17.21L193,206l-.23.25c-.2.22-.42.43-.63.63L192,207l-.22.19-.18.15c-.16.13-.31.26-.47.37l-.2.14-.33.23a1.18,1.18,0,0,1-.19.11,5.47,5.47,0,0,1-.66.37l-.16.08-.17.08-.22.09-.08,0-.26.09-.32.1a1.8,1.8,0,0,1-.22.06h0l-.22,0-.06,0-.18,0a1.15,1.15,0,0,1-.26,0H187l-.19,0h0l-.24,0-.21,0a5.92,5.92,0,0,1-1.14-.39,8,8,0,0,1-1-.52l-.5-.33-.24-.17c-.26-.19-.52-.4-.77-.62l-.21-.19-.2-.19c-.17-.16-.34-.33-.5-.51s-.12-.13-.18-.21a7.34,7.34,0,0,1-.51-.6l-.18-.24c-.22-.29-.42-.59-.62-.9l-.15-.26-.18-.31a11.26,11.26,0,0,1-.59-1.21,1.07,1.07,0,0,1-.07-.19,1.6,1.6,0,0,1-.1-.23l-.12-.35a3.58,3.58,0,0,1-.11-.35,3.37,3.37,0,0,1-.1-.34c0-.12-.07-.24-.1-.37a.08.08,0,0,0,0,0c0-.17-.07-.34-.11-.52s-.07-.47-.1-.72a1.64,1.64,0,0,1,0-.22,1.94,1.94,0,0,1,0-.24l0-.44v-6.88a8.84,8.84,0,0,1,8.82-8.83h0a8.85,8.85,0,0,1,3.6.77,8.54,8.54,0,0,1,2,1.23,8.13,8.13,0,0,1,1.36,1.39,8.68,8.68,0,0,1,1.88,5.36Z"/><path class="cls-17" d="M198.75,222.82h-23a11.47,11.47,0,0,1,.61-3.72c.07-.21.15-.41.23-.62h0l.27-.61a11.63,11.63,0,0,1,1.4-2.23c.14-.17.28-.34.43-.5l.22-.24.23-.24a12.51,12.51,0,0,1,1.24-1.07l.67-.46c.23-.15.47-.29.71-.42h0l.27-.16a6.78,6.78,0,0,0,.78-.54,7.22,7.22,0,0,0,2.32-3.24,7.33,7.33,0,0,0,.42-2.45H189a7.29,7.29,0,0,0,2.73,5.68,4.29,4.29,0,0,0,.48.36l.05,0,.24.15.27.16,0,0,.56.33a2.4,2.4,0,0,1,.26.18,6.3,6.3,0,0,1,.53.37h0c.21.16.43.33.64.51l.6.56A11.43,11.43,0,0,1,198.75,222.82Z"/><path class="cls-12" d="M198.75,222.82h-23a11.47,11.47,0,0,1,.61-3.72c.07-.21.15-.42.23-.62h0l.27-.61a11.16,11.16,0,0,1,1.4-2.23c.14-.18.28-.34.43-.5l.22-.25c.08-.07.15-.15.23-.23a12.51,12.51,0,0,1,1.24-1.07l.67-.46.36-.22.35-.2h0l.28-.16a7.14,7.14,0,0,0,.77-.55h0a6.14,6.14,0,0,0,4.42,1.86h0a6.19,6.19,0,0,0,4.43-1.86h0a4.21,4.21,0,0,0,.48.35l.05,0,.24.15.27.16,0,0,.3.17.26.16.26.17c.18.12.36.24.53.37h0c.21.17.43.34.63.52s.41.36.61.56A11.43,11.43,0,0,1,198.75,222.82Z"/><path class="cls-18" d="M196.07,198.21v.29c0,.08,0,.15,0,.23s0,.14,0,.21a.76.76,0,0,0,0,.15.28.28,0,0,0,0,.09s0,.11,0,.16a2.91,2.91,0,0,1,0,.31.22.22,0,0,1,0,.08,1,1,0,0,1,0,.16c0,.07,0,.15,0,.23a2.56,2.56,0,0,0-.05.27l0,.05v.05h0v0a.65.65,0,0,1,0,.13.22.22,0,0,1,0,.08.56.56,0,0,1,0,.12.13.13,0,0,1,0,.06s0,0,0,.06c-.05.17-.1.35-.16.52s-.05.16-.08.25v0l-.08.22,0,.07a1.8,1.8,0,0,1-.08.21l-.1.25-.1.22s0,0,0,0-.07.15-.11.23l-.12.24c-.07.16-.16.31-.24.47l-.12.21a13.11,13.11,0,0,1-1.11,1.61l-.17.21L193,206l-.23.25c-.2.22-.42.43-.63.63L192,207l-.22.19-.18.15c-.16.13-.31.26-.47.37l-.2.14-.33.23a1.18,1.18,0,0,1-.19.11,5.47,5.47,0,0,1-.66.37l-.16.08-.17.08-.22.09-.08,0-.26.09-.32.1a1.8,1.8,0,0,1-.22.06h0l-.22,0-.06,0-.18,0a1.15,1.15,0,0,1-.26,0H187l-.19,0h0l-.24,0-.21,0a5.92,5.92,0,0,1-1.14-.39,8,8,0,0,1-1-.52l-.5-.33-.24-.17c-.26-.19-.52-.4-.77-.62l-.21-.19-.2-.19c-.17-.16-.34-.33-.5-.51s-.12-.13-.18-.21a7.34,7.34,0,0,1-.51-.6l-.18-.24c-.22-.29-.42-.59-.62-.9l-.15-.26-.18-.31a11.26,11.26,0,0,1-.59-1.21,1.07,1.07,0,0,1-.07-.19,1.6,1.6,0,0,1-.1-.23l-.12-.35a3.58,3.58,0,0,1-.11-.35,3.37,3.37,0,0,1-.1-.34c0-.12-.07-.24-.1-.37a.08.08,0,0,0,0,0c0-.17-.07-.34-.11-.52s-.07-.47-.1-.72a1.64,1.64,0,0,1,0-.22,1.94,1.94,0,0,1,0-.24l0-.44v-.29l1.41,2.77,2.42,1.06,2.86.26h0l2.12.19h0l2,.18h0l4.43.4Z"/><path class="cls-18" d="M187.26,199.6v2.14h0V205h0l-8.53-4.34a.08.08,0,0,0,0,0c0-.17-.07-.34-.11-.52s-.07-.47-.1-.72a1.64,1.64,0,0,1,0-.22,1.94,1.94,0,0,1,0-.24l0-.44v-2.77a8.86,8.86,0,0,0,.31,2,8.4,8.4,0,0,0,.56,1.49h0c.56,1.19,1.32,2,2,2.12h.14a7.58,7.58,0,0,0,.84,0c1.11,0,2.09-.89,2.71-1.25h0l.1-.06s0,0,0,0a4.44,4.44,0,0,1,2.11-.49Z"/><path class="cls-18" d="M196.07,195.62v2.59a10.94,10.94,0,0,1-.17,1.91c-.05.24-.1.49-.16.73l-2,2.89L187.25,205h0V199.6h0a4.39,4.39,0,0,1,2.11.49h0l.09.06h0c.62.36,1.59,1.25,2.7,1.25a7.77,7.77,0,0,0,.85,0h.13c.7-.13,1.46-.94,2-2.12h0a8.69,8.69,0,0,0,.55-1.49,8.1,8.1,0,0,0,.31-2.05Z"/><ellipse class="cls-17" cx="187.25" cy="202.41" rx="2.16" ry="0.67"/><path class="cls-18" d="M187.25,182.79h0a8.84,8.84,0,0,0-8.82,8.83v3.89a8.5,8.5,0,0,1,1.35-3.45c1.07-1.22.8-3.09,3.2-3.09,1.55,0,1.64.58,4.27.58h0c2.62,0,2.71-.58,4.26-.58,2.4,0,2.13,1.87,3.2,3.09a8.42,8.42,0,0,1,1.36,3.45v-3.89A8.84,8.84,0,0,0,187.25,182.79Z"/><path class="cls-14" d="M187.24,182.79v40H175.75a11.47,11.47,0,0,1,.61-3.72c.07-.21.15-.41.23-.62h0l.27-.61a11.63,11.63,0,0,1,1.4-2.23c.14-.17.28-.34.43-.5l.22-.24.23-.24a12.51,12.51,0,0,1,1.24-1.07l.67-.46c.23-.15.47-.29.71-.42h0l.27-.16a6,6,0,0,0,.77-.55h0a7.22,7.22,0,0,0,2.32-3.24,8,8,0,0,1-1-.52l-.5-.33-.24-.17c-.26-.19-.52-.4-.77-.62l-.21-.19-.2-.19c-.17-.16-.34-.33-.5-.51s-.12-.13-.18-.21a7.34,7.34,0,0,1-.51-.6l-.18-.24c-.22-.29-.42-.59-.62-.9l-.15-.26-.18-.31a11.26,11.26,0,0,1-.59-1.21,1.07,1.07,0,0,1-.07-.19,1.6,1.6,0,0,1-.1-.23l-.12-.35a3.58,3.58,0,0,1-.11-.35,3.37,3.37,0,0,1-.1-.34c0-.12-.07-.24-.1-.37a.08.08,0,0,0,0,0c0-.17-.07-.34-.11-.52s-.07-.47-.1-.72a1.64,1.64,0,0,1,0-.22,1.94,1.94,0,0,1,0-.24l0-.44v-6.88A8.84,8.84,0,0,1,187.24,182.79Z"/><path class="cls-19" d="M193.07,212.9l-.24.25a7.82,7.82,0,0,1-11.19,0l-.23-.23.35-.2h0l.28-.16a7.14,7.14,0,0,0,.77-.55h0a6.14,6.14,0,0,0,4.42,1.86h0a6.19,6.19,0,0,0,4.43-1.86h0a4.21,4.21,0,0,0,.48.35l.05,0,.24.15.27.16,0,0Z"/></g><circle id="SVGID-8" data-name="SVGID" class="cls-2" cx="187.4" cy="84.81" r="19.84"/><g class="cls-20"><path class="cls-17" d="M196.24,76.1v6.59a2.81,2.81,0,0,1,0,.29v.23c0,.07,0,.14,0,.21a.76.76,0,0,1,0,.15.28.28,0,0,1,0,.09.86.86,0,0,1,0,.16c0,.11,0,.21,0,.31s0,.05,0,.08l0,.16h0l0,.23-.06.31h0a.09.09,0,0,1,0,0h0c0,.06,0,.11,0,.16a.24.24,0,0,1,0,.08.52.52,0,0,1,0,.11s0,0,0,.07,0,0,0,.06a5.08,5.08,0,0,1-.15.52c0,.08-.05.16-.08.25v0l-.08.22a.19.19,0,0,1,0,.07l-.08.21c0,.08-.07.16-.1.25s-.07.14-.1.22,0,0,0,0a1.63,1.63,0,0,0-.11.23l-.12.24-.25.47-.11.21A14.32,14.32,0,0,1,193.54,90l-.17.21c-.08.09-.16.19-.25.28a2.62,2.62,0,0,1-.22.25c-.21.22-.42.43-.64.63a1.59,1.59,0,0,1-.13.13l-.22.19-.18.15-.47.37-.2.14-.33.23-.19.11a4.91,4.91,0,0,1-.67.37.8.8,0,0,1-.16.08l-.17.08a1,1,0,0,1-.21.09l-.09,0-.25.09-.32.1-.23.06h0l-.22,0h-.06a.57.57,0,0,1-.18,0l-.26,0h-.58l-.19,0h0l-.25,0-.21,0a7,7,0,0,1-1.14-.39,8.6,8.6,0,0,1-1-.52c-.17-.1-.33-.21-.5-.33l-.25-.17c-.25-.19-.51-.4-.76-.62l-.21-.19-.21-.19c-.16-.16-.33-.33-.49-.51l-.19-.21c-.17-.19-.34-.39-.5-.6l-.18-.24c-.22-.29-.43-.59-.62-.9l-.16-.26-.17-.31a11.26,11.26,0,0,1-.59-1.21,1.54,1.54,0,0,1-.08-.19l-.09-.23c0-.12-.09-.23-.13-.35s-.07-.23-.11-.35-.06-.22-.1-.34l-.09-.37s0,0,0,0c0-.17-.08-.34-.11-.52s-.08-.48-.1-.72l0-.22c0-.08,0-.16,0-.24s0-.29,0-.44V76.1a8.83,8.83,0,0,1,8.82-8.83h0a9,9,0,0,1,2,.22A9.13,9.13,0,0,1,191,68a8.76,8.76,0,0,1,2,1.23,8.52,8.52,0,0,1,1.36,1.39A8.81,8.81,0,0,1,196.24,76Z"/><path class="cls-17" d="M198.91,107.3h-23a11.47,11.47,0,0,1,.62-3.72c.07-.21.15-.42.23-.62h0a6.65,6.65,0,0,1,.27-.61,11.16,11.16,0,0,1,1.4-2.23c.14-.17.28-.34.43-.5l.22-.24.23-.24a11.46,11.46,0,0,1,1.24-1.07l.67-.46c.23-.15.46-.29.7-.42h0l.28-.16a6.78,6.78,0,0,0,.78-.54,7.28,7.28,0,0,0,2.31-3.24,7.09,7.09,0,0,0,.43-2.45h3.4a7.21,7.21,0,0,0,.41,2.43,7.36,7.36,0,0,0,2.31,3.25c.16.13.32.24.49.36l0,0,.24.15.27.16,0,0,.57.33.26.17.53.38h0c.22.16.43.33.64.51s.41.37.6.56A11.43,11.43,0,0,1,198.91,107.3Z"/><path class="cls-12" d="M198.91,107.3h-23a11.47,11.47,0,0,1,.62-3.72c.07-.21.15-.42.23-.62h0a6.65,6.65,0,0,1,.27-.61,11.16,11.16,0,0,1,1.4-2.23c.14-.18.28-.34.42-.5l.23-.25.23-.23a11.46,11.46,0,0,1,1.24-1.07c.22-.16.44-.32.67-.46l.36-.22.34-.2h0l.28-.16a7.14,7.14,0,0,0,.77-.55h0a6.17,6.17,0,0,0,4.42,1.86h0a6.16,6.16,0,0,0,4.43-1.86h0l.47.35,0,0,.24.15.27.16,0,0,.31.17.26.16.26.17c.18.12.36.24.53.37h0c.22.17.44.34.64.52a8,8,0,0,1,.6.56A11.43,11.43,0,0,1,198.91,107.3Z"/><path class="cls-18" d="M196.24,82.69a2.81,2.81,0,0,1,0,.29v.23c0,.07,0,.14,0,.21a.76.76,0,0,1,0,.15.28.28,0,0,1,0,.09.86.86,0,0,1,0,.16c0,.11,0,.21,0,.31s0,.05,0,.08l0,.16,0,.23-.06.27a.09.09,0,0,1,0,0s0,0,0,0h0a0,0,0,0,1,0,0l0,.13a.24.24,0,0,1,0,.08l0,.12s0,0,0,.06,0,0,0,.06a5.08,5.08,0,0,1-.15.52c0,.08-.05.16-.08.25v0l-.08.22a.19.19,0,0,1,0,.07l-.08.21c0,.08-.07.16-.1.25s-.07.14-.1.22,0,0,0,0a1.63,1.63,0,0,0-.11.23l-.12.24-.25.47-.11.21A14.32,14.32,0,0,1,193.54,90l-.17.21c-.08.09-.16.19-.25.28a2.62,2.62,0,0,1-.22.25c-.21.22-.42.43-.64.63a1.59,1.59,0,0,1-.13.13l-.22.19-.18.15-.47.37-.2.14-.33.23-.19.11a4.91,4.91,0,0,1-.67.37.8.8,0,0,1-.16.08l-.17.08a1,1,0,0,1-.21.09l-.09,0-.25.09-.32.1-.23.06h0l-.22,0h-.06a.57.57,0,0,1-.18,0l-.26,0h-.58l-.19,0h0l-.25,0-.21,0a7,7,0,0,1-1.14-.39,8.6,8.6,0,0,1-1-.52c-.17-.1-.33-.21-.5-.33l-.25-.17c-.25-.19-.51-.4-.76-.62l-.21-.19-.21-.19c-.16-.16-.33-.33-.49-.51l-.19-.21c-.17-.19-.34-.39-.5-.6l-.18-.24c-.22-.29-.43-.59-.62-.9l-.16-.26-.17-.31a11.26,11.26,0,0,1-.59-1.21,1.54,1.54,0,0,1-.08-.19l-.09-.23c0-.12-.09-.23-.13-.35s-.07-.23-.11-.35-.06-.22-.1-.34l-.09-.37s0,0,0,0c0-.17-.08-.34-.11-.52s-.08-.48-.1-.72l0-.22c0-.08,0-.16,0-.24s0-.29,0-.44v-.29L180,85.46l2.42,1.06,2.86.26h0l2.13.19h0l2,.18h0l4.43.4Z"/><path class="cls-18" d="M187.42,84.08v2.14h0v3.29h0l-8.53-4.34s0,0,0,0c0-.17-.08-.34-.11-.52s-.08-.48-.1-.72l0-.22c0-.08,0-.16,0-.24s0-.29,0-.44V80.21a8.86,8.86,0,0,0,.31,2,8.69,8.69,0,0,0,.55,1.49h0c.57,1.19,1.33,2,2,2.12h.13a7.77,7.77,0,0,0,.85.05c1.11,0,2.09-.89,2.71-1.25h0l.09,0,0,0a4.44,4.44,0,0,1,2.11-.49Z"/><path class="cls-18" d="M196.24,80.1v2.59a10.94,10.94,0,0,1-.17,1.91c0,.24-.1.49-.16.73l-2,2.89-6.49,1.29h0V84.08h0a4.33,4.33,0,0,1,2.11.49h0l.09.06h0c.62.36,1.6,1.25,2.71,1.25a7.58,7.58,0,0,0,.84-.05h.14c.7-.13,1.46-.94,2-2.12h0a9.62,9.62,0,0,0,.55-1.49,8.58,8.58,0,0,0,.31-2Z"/><ellipse class="cls-17" cx="187.41" cy="86.89" rx="2.16" ry="0.67"/><path class="cls-18" d="M187.41,67.27h0a8.83,8.83,0,0,0-8.82,8.83V80a8.35,8.35,0,0,1,1.35-3.45c1.07-1.22.8-3.09,3.2-3.09,1.55,0,1.64.58,4.26.58h0c2.62,0,2.71-.58,4.26-.58,2.4,0,2.13,1.87,3.2,3.09A8.35,8.35,0,0,1,196.23,80V76.1A8.84,8.84,0,0,0,187.41,67.27Z"/><path class="cls-14" d="M187.41,67.27v40h-11.5a11.47,11.47,0,0,1,.62-3.72c.07-.21.15-.42.23-.62h0a6.65,6.65,0,0,1,.27-.61,11.16,11.16,0,0,1,1.4-2.23c.14-.17.28-.34.43-.5l.22-.24.23-.24a11.46,11.46,0,0,1,1.24-1.07l.67-.46c.23-.15.46-.29.7-.42h0l.28-.16a6,6,0,0,0,.77-.55h0a7.28,7.28,0,0,0,2.31-3.24,8.6,8.6,0,0,1-1-.52c-.17-.1-.33-.21-.5-.33l-.25-.17c-.25-.19-.51-.4-.76-.62l-.21-.19-.21-.19c-.16-.16-.33-.33-.49-.51l-.19-.21c-.17-.19-.34-.39-.5-.6l-.18-.24c-.22-.29-.43-.59-.62-.9l-.16-.26-.17-.31a11.26,11.26,0,0,1-.59-1.21,1.54,1.54,0,0,1-.08-.19l-.09-.23c0-.12-.09-.23-.13-.35s-.07-.23-.11-.35-.06-.22-.1-.34l-.09-.37s0,0,0,0c0-.17-.08-.34-.11-.52s-.08-.48-.1-.72l0-.22c0-.08,0-.16,0-.24s0-.29,0-.44V76.1A8.83,8.83,0,0,1,187.41,67.27Z"/><path class="cls-19" d="M193.24,97.38l-.24.24a7.84,7.84,0,0,1-11.19,0l-.23-.23.34-.2h0l.28-.16a7.14,7.14,0,0,0,.77-.55h0a6.17,6.17,0,0,0,4.42,1.86h0a6.16,6.16,0,0,0,4.43-1.86h0l.47.35,0,0,.24.15.27.16,0,0Z"/></g></g></g></g></svg>