<?xml version="1.0" encoding="utf-8"?>
<!-- Generator: Adobe Illustrator 24.0.2, SVG Export Plug-In . SVG Version: 6.00 Build 0)  -->
<svg version="1.1" xmlns="http://www.w3.org/2000/svg" xmlns:xlink="http://www.w3.org/1999/xlink" x="0px" y="0px"
	 viewBox="0 0 189.33 209.78" style="enable-background:new 0 0 189.33 209.78;" xml:space="preserve">
<style type="text/css">
	.st0{fill:#DCA665;}
	.st1{fill:#B77F43;}
	.st2{fill:#F4C080;}
	.st3{fill:#F7EAB8;}
	.st4{fill:none;stroke:#000000;stroke-width:0.5;stroke-miterlimit:10;}
	.st5{fill:none;}
	.st6{font-family:'Raleway';}
	.st7{font-size:23px;}
</style>
<g id="Layer_1">
</g>
<g id="Camada_2">
	<g>
		<path class="st0" d="M109.25,149.87c0,0,42.2-24.4,47.37-28.42c0,0,3.16-53.11,1.44-56.56c-1.72-3.45-41.06,8.9-41.06,8.9
			l-15.52,16.08L100.64,116L109.25,149.87z"/>
		<path class="st1" d="M60.44,64.89c0,0,0.29,53.97,1.44,57.71s45.65,27.85,47.37,27.27s0-56.27,0-56.27l-15.5-26.13L60.44,64.89z"
			/>
		<path class="st2" d="M60.44,64.89c-0.75,1.87,47.08,29,48.81,28.71c1.72-0.29,47.95-27.85,48.81-28.71s-45.07-26.99-48.81-27.85
			C105.52,36.18,61.59,62.02,60.44,64.89z"/>
		<path class="st3" d="M79.11,52.37c0,0,47.92,31.19,48.52,30.84c0.6-0.35-0.56,20.74,0,21.88c0.56,1.15,10.32-5.45,11.18-6.32
			c0.86-0.86,0.86-18.24,0-22.18c-0.86-3.94-45.17-29.43-47.85-31.04C88.29,43.94,77.44,51.28,79.11,52.37z"/>
		<g>
			<line x1="54.98" y1="61.82" x2="13.34" y2="37.02"/>
			<line class="st4" x1="54.98" y1="61.82" x2="13.34" y2="37.02"/>
			<line x1="54.98" y1="61.82" x2="13.34" y2="37.02"/>
		</g>
		<g>
			<line x1="54.98" y1="117.62" x2="13.34" y2="92.82"/>
			<line class="st4" x1="54.98" y1="117.62" x2="13.34" y2="92.82"/>
			<line x1="54.98" y1="117.62" x2="13.34" y2="92.82"/>
		</g>
		<g>
			<line x1="102.08" y1="34.55" x2="60.44" y2="9.75"/>
			<line class="st4" x1="102.08" y1="34.55" x2="60.44" y2="9.75"/>
			<line x1="102.08" y1="34.55" x2="60.44" y2="9.75"/>
		</g>
	</g>
	<rect x="36.27" y="171.41" class="st5" width="147.5" height="21.29"/>
	<text transform="matrix(1 0 0 1 36.2649 188.2004)" class="st6 st7">Help Delivery</text>
</g>
</svg>
